<svg xmlns="http://www.w3.org/2000/svg"  viewBox="0 0 48 48" width="144px" height="144px" baseProfile="basic"><linearGradient id="rbXYKcHuafrONH-oB5Y1fa" x1="23" x2="48" y1="25.5" y2="25.5" gradientUnits="userSpaceOnUse"><stop offset="0" stop-color="#0d265b"/><stop offset="1" stop-color="#0c3194"/></linearGradient><path fill="url(#rbXYKcHuafrONH-oB5Y1fa)" d="M41,15c0,0,1,4,7,9c0,0-7,12-24,12l-1-21H41z"/><linearGradient id="rbXYKcHuafrONH-oB5Y1fb" x1="0" x2="25" y1="25.5" y2="25.5" gradientUnits="userSpaceOnUse"><stop offset="0" stop-color="#0d265b"/><stop offset="1" stop-color="#0c3194"/></linearGradient><path fill="url(#rbXYKcHuafrONH-oB5Y1fb)" d="M7,15c0,0-1,4-7,9c0,0,7,12,24,12l1-21H7z"/><linearGradient id="rbXYKcHuafrONH-oB5Y1fc" x1="4" x2="10" y1="29.59" y2="29.59" gradientUnits="userSpaceOnUse"><stop offset="0" stop-color="#eeb597"/><stop offset="1" stop-color="#ffd0ad"/></linearGradient><path fill="url(#rbXYKcHuafrONH-oB5Y1fc)" d="M6.75,25C5,25,4,25.512,4,27c0,1.512,0.667,2.908,1.211,4c0.7,1.406,1.508,2.257,2.203,2.651	c0.7,0.397,2.586,0.53,2.586,0.53L9.75,25H8H7H6.75z"/><linearGradient id="rbXYKcHuafrONH-oB5Y1fd" x1="38" x2="44" y1="29.59" y2="29.59" gradientUnits="userSpaceOnUse"><stop offset="0" stop-color="#eeb597"/><stop offset="1" stop-color="#ffd0ad"/></linearGradient><path fill="url(#rbXYKcHuafrONH-oB5Y1fd)" d="M41,25h-1h-1.75L38,34.181c0,0,1.886-0.133,2.586-0.53c0.695-0.394,1.503-1.245,2.203-2.651	C43.333,29.908,44,28.512,44,27c0-1.488-1-2-2.75-2H41z"/><linearGradient id="rbXYKcHuafrONH-oB5Y1fe" x1="10" x2="38" y1="29.5" y2="29.5" gradientUnits="userSpaceOnUse"><stop offset="0" stop-color="#eeb597"/><stop offset="1" stop-color="#ffd0ad"/></linearGradient><path fill="url(#rbXYKcHuafrONH-oB5Y1fe)" d="M10,13l1.167,24.003c0,0.576,0.208,1.128,0.594,1.556c0.003,0.003,0.006,0.007,0.009,0.012	c0.35,0.385,1.329,1.371,1.329,1.371C15.598,42.381,20.94,46,24,46s8.402-3.619,10.901-6.059h-0.009	c0.52-0.508,0.988-0.986,1.338-1.371c0.003-0.003,0.006-0.007,0.009-0.012c0.386-0.428,0.594-0.979,0.594-1.556L38,13H10z"/><path fill="#bc8771" d="M20.5,37.932h7l0,0c0,1.381-2.211,2.5-3.5,2.5l0,0C22.711,40.432,20.5,39.312,20.5,37.932	L20.5,37.932z"/><path fill="#bc8771" d="M21.75,34h4.5c0,0-1.125,2-2.25,2S21.75,34,21.75,34z"/><path fill="#f5e9e8" d="M27,26.6l1.594-2.15c0,0,4.12-1.45,6.406,2.15l-1.565,2.366L28.217,29L27,26.6z"/><linearGradient id="rbXYKcHuafrONH-oB5Y1ff" x1="28.811" x2="33.382" y1="26.667" y2="26.667" gradientUnits="userSpaceOnUse"><stop offset="0" stop-color="#32bdef"/><stop offset="1" stop-color="#1ea2e4"/></linearGradient><path fill="url(#rbXYKcHuafrONH-oB5Y1ff)" d="M31.433,24.372c-1.248-0.219-2.411,0.798-2.597,2.273c-0.113,0.901,0.167,1.761,0.685,2.346	l3.162-0.02c0.348-0.398,0.598-0.922,0.674-1.532C33.543,25.965,32.681,24.591,31.433,24.372z"/><path fill="#212121" d="M28.992,23.464L27,26.6c0,0,1.062-1.201,3.429-1.2c3.429,0,4.571,1.2,4.571,1.2l-0.418-0.957	c-0.456-1.043-1.358-1.796-2.429-2.026l-2.33-0.501C29.5,23.046,29.169,23.185,28.992,23.464z"/><path fill="#f5e9e8" d="M21,26.6l-1.594-2.15c0,0-4.12-1.45-6.406,2.15l1.565,2.366L19.783,29L21,26.6z"/><linearGradient id="rbXYKcHuafrONH-oB5Y1fg" x1="14.618" x2="19.189" y1="26.667" y2="26.667" gradientUnits="userSpaceOnUse"><stop offset="0" stop-color="#32bdef"/><stop offset="1" stop-color="#1ea2e4"/></linearGradient><path fill="url(#rbXYKcHuafrONH-oB5Y1fg)" d="M16.567,24.372c1.248-0.219,2.411,0.798,2.597,2.273c0.113,0.901-0.167,1.761-0.685,2.346	l-3.162-0.02c-0.348-0.398-0.598-0.922-0.674-1.532C14.457,25.965,15.318,24.591,16.567,24.372z"/><path fill="#212121" d="M19.008,23.464L21,26.6c0,0-1.062-1.201-3.429-1.2C14.143,25.4,13,26.6,13,26.6l0.418-0.957	c0.456-1.043,1.358-1.796,2.429-2.026l2.33-0.501C18.5,23.046,18.831,23.185,19.008,23.464z"/><linearGradient id="rbXYKcHuafrONH-oB5Y1fh" x1="24" x2="24" y1="47" y2="2.059" gradientUnits="userSpaceOnUse"><stop offset=".301" stop-color="#2b92f3"/><stop offset="1" stop-color="#1166d2"/></linearGradient><path fill="url(#rbXYKcHuafrONH-oB5Y1fh)" d="M41.992,22.483C44.778,23.677,48,24,48,24c-3.678-2.942-5.728-6.419-6.557-8.055	C40.227,9.909,36.353,2.059,24,2.059c-12.353,0-16.227,7.85-17.443,13.886C5.728,17.581,3.678,21.058,0,24	c0,0,3.222-0.323,6.008-1.517C6.19,36.251,14,47,14,47c-3.12-9.259-2.739-20.893-2.467-25.481c1.28-0.291,2.581-0.523,3.892-0.727	C15.552,18.21,18,14.532,18,14.532v5.174v0.738c1.971-0.214,3.971-0.333,6-0.333c2.174,0,4.317,0.128,6.424,0.373v-3.33	c0,0,1.166,1.753,1.84,3.596c1.464,0.219,2.917,0.474,4.343,0.802C36.878,26.17,37.112,37.763,34,47	C34,47,41.81,36.251,41.992,22.483z"/><linearGradient id="rbXYKcHuafrONH-oB5Y1fi" x1="17.277" x2="17.277" y1="12.152" y2="5.67" gradientUnits="userSpaceOnUse"><stop offset="0" stop-color="#32bdef"/><stop offset="1" stop-color="#1ea2e4"/></linearGradient><path fill="url(#rbXYKcHuafrONH-oB5Y1fi)" d="M20.321,7.801c0.161-0.718,0.358-1.428,0.578-2.131c-1.337,0.05-2.665,0.136-3.983,0.259	c-0.863,1.145-1.577,2.441-2.212,3.753c-0.384,0.81-0.737,1.637-1.051,2.471c1.998-0.304,4.02-0.53,6.072-0.651	c0.053-0.583,0.122-1.134,0.209-1.695C20.041,9.132,20.17,8.464,20.321,7.801z"/><linearGradient id="rbXYKcHuafrONH-oB5Y1fj" x1="34.901" x2="34.901" y1="13.129" y2="6.048" gradientUnits="userSpaceOnUse"><stop offset="0" stop-color="#32bdef"/><stop offset="1" stop-color="#1ea2e4"/></linearGradient><path fill="url(#rbXYKcHuafrONH-oB5Y1fj)" d="M34.823,12.368c1.264,0.22,2.516,0.473,3.755,0.761c-0.855-2.26-2.166-4.312-4.115-5.892	c-0.118-0.091-0.227-0.187-0.35-0.275c-0.004-0.003-0.009-0.006-0.013-0.01c-0.339-0.242-0.693-0.474-1.066-0.692	c-0.601-0.079-1.205-0.146-1.81-0.212c0.424,0.525,0.831,1.065,1.195,1.636C33.388,9.188,34.143,10.785,34.823,12.368z"/><linearGradient id="rbXYKcHuafrONH-oB5Y1fk" x1="12.4" x2="12.4" y1="12.898" y2="6.093" gradientUnits="userSpaceOnUse"><stop offset="0" stop-color="#32bdef"/><stop offset="1" stop-color="#1ea2e4"/></linearGradient><path fill="url(#rbXYKcHuafrONH-oB5Y1fk)" d="M15.288,6.094c-0.015,0.002-0.03,0.003-0.044,0.005c-0.597,0.332-1.14,0.704-1.654,1.096	c-1.912,1.532-3.216,3.515-4.079,5.704c0.565-0.122,1.139-0.216,1.709-0.324c0.599-1.294,1.287-2.516,2.039-3.699	C13.883,7.914,14.545,6.977,15.288,6.094z"/><linearGradient id="rbXYKcHuafrONH-oB5Y1fl" x1="26.559" x2="26.559" y1="11.832" y2="5.615" gradientUnits="userSpaceOnUse"><stop offset="0" stop-color="#32bdef"/><stop offset="1" stop-color="#1ea2e4"/></linearGradient><path fill="url(#rbXYKcHuafrONH-oB5Y1fl)" d="M28.315,5.783c-1.591-0.11-3.196-0.168-4.814-0.168c-0.343,0-0.683,0.01-1.024,0.016	c-0.161,0.815-0.295,1.634-0.372,2.461c-0.062,0.636-0.104,1.273-0.122,1.91c-0.014,0.475-0.012,0.96,0.002,1.425	c0.506-0.012,1.008-0.042,1.517-0.042c2.585,0,5.135,0.154,7.642,0.447c-0.29-0.997-0.615-1.971-1.021-2.9	C29.644,7.823,29.038,6.774,28.315,5.783z"/><path d="M34.892,39.941c0.14-0.137,0.263-0.263,0.395-0.394l0.106-0.69c1.08-7.055,0.895-13.923,0.737-16.9	c-1.175-0.26-2.438-0.488-3.939-0.712l-0.294-0.044l-0.102-0.279c-0.249-0.68-0.569-1.352-0.87-1.922v1.484v0.562l-0.558-0.065	c-2.109-0.245-4.251-0.37-6.366-0.37c-1.928,0-3.929,0.111-5.946,0.33l-0.554,0.06v-0.557v-0.738V16.36	c-0.682,1.26-1.507,3.053-1.576,4.457l-0.02,0.407l-0.403,0.063c-1.331,0.207-2.452,0.412-3.491,0.639	c-0.239,4.311-0.309,10.637,0.629,16.97l0.101,0.685c0.205,0.208,0.358,0.363,0.358,0.363c0.073,0.071,0.156,0.146,0.233,0.219	l-0.198-1.34c-0.904-6.108-0.865-12.213-0.645-16.487c0.925-0.194,1.926-0.373,3.089-0.554l0.805-0.125l0.04-0.814	c0.033-0.667,0.263-1.461,0.576-2.251v1.116v0.738v1.114l1.108-0.12c1.999-0.217,3.982-0.327,5.892-0.327	c2.096,0,4.218,0.123,6.309,0.366l1.808,0.262c1.332,0.199,2.474,0.401,3.533,0.626c0.151,3.136,0.279,9.693-0.751,16.417	l-0.208,1.357c0.07-0.066,0.145-0.134,0.211-0.198H34.892z" opacity=".05"/><path d="M12.011,21.925c1.039-0.227,2.16-0.432,3.491-0.639l0.403-0.063l0.02-0.407	c0.069-1.404,0.894-3.196,1.576-4.457v3.346v0.738v0.557l0.554-0.06c2.017-0.219,4.018-0.33,5.946-0.33	c2.115,0,4.257,0.124,6.366,0.37l0.558,0.065v-0.562V19c0.301,0.57,0.622,1.242,0.87,1.922l0.102,0.279l0.294,0.044	c1.501,0.224,2.764,0.453,3.939,0.712c0.159,2.977,0.344,9.846-0.737,16.9l-0.106,0.69c0.356-0.356,0.688-0.696,0.943-0.977	c-0.099,0.109-0.227,0.24-0.344,0.363c1.085-7.088,0.916-14.05,0.721-17.381c-1.426-0.328-2.879-0.583-4.343-0.802	c-0.674-1.843-1.84-3.596-1.84-3.596v3.33c-2.107-0.245-4.25-0.373-6.424-0.373c-2.029,0-4.029,0.119-6,0.333v-0.738v-5.174	c0,0-2.448,3.678-2.575,6.26c-1.311,0.204-2.612,0.436-3.892,0.727c-0.197,3.318-0.443,10.323,0.612,17.449	c0.197,0.204,0.416,0.428,0.596,0.611l-0.101-0.685C11.702,32.562,11.771,26.236,12.011,21.925z" opacity=".07"/></svg>