<svg xmlns="http://www.w3.org/2000/svg"  viewBox="0 0 48 48" width="144px" height="144px" baseProfile="basic"><linearGradient id="ng7f4bIrIQ9rGY8m3b_eja" x1="9" x2="13" y1="31.5" y2="31.5" gradientUnits="userSpaceOnUse"><stop offset="0" stop-color="#eeb597"/><stop offset="1" stop-color="#ffd0ad"/></linearGradient><path fill="url(#ng7f4bIrIQ9rGY8m3b_eja)" d="M13,26h-2.012C9.89,26,9,26.89,9,27.988l0,0c0,1.59,0.745,4.703,1.211,5.831	c0.539,1.306,0.848,2.12,1.453,2.651S13,37,13,37V26z"/><path fill="#bc8771" d="M12.125,34c0,0-1.125,0-1.125-2c0-3.5-1-4-1-4s3-0.375,3,4C13,34,12.125,34,12.125,34z"/><linearGradient id="ng7f4bIrIQ9rGY8m3b_ejb" x1="35" x2="39" y1="31.5" y2="31.5" gradientUnits="userSpaceOnUse"><stop offset="0" stop-color="#eeb597"/><stop offset="1" stop-color="#ffd0ad"/></linearGradient><path fill="url(#ng7f4bIrIQ9rGY8m3b_ejb)" d="M35,26h2.012C38.11,26,39,26.89,39,27.988l0,0c0,1.59-0.745,4.703-1.211,5.831	c-0.539,1.306-0.848,2.12-1.453,2.651S35,37,35,37V26z"/><path fill="#bc8771" d="M35,32c0-4.375,3-4,3-4s-1,0.5-1,4c0,2-1.125,2-1.125,2S35,34,35,32z"/><linearGradient id="ng7f4bIrIQ9rGY8m3b_ejc" x1="12" x2="36" y1="32.5" y2="32.5" gradientUnits="userSpaceOnUse"><stop offset="0" stop-color="#eeb597"/><stop offset="1" stop-color="#ffd0ad"/></linearGradient><path fill="url(#ng7f4bIrIQ9rGY8m3b_ejc)" d="M24,17c-10.913,0-12,9-12,9s0,3,0,6s0.132,6,1.846,9c0.466,0.815,6.332,7,10.154,7	s9.688-6.185,10.154-7C35.868,38,36,35,36,32s0-6,0-6S34.913,17,24,17z"/><rect width="2" height="7" x="30" y="30" fill="#f3988c"/><path fill="#f5e9e8" d="M31,28c-3,0-4,2-4,2l1,1h2.423C33,31,34,30,34,29C34,29,33,28,31,28z"/><circle cx="30.5" cy="29.5" r="1.5" fill="#bf360c"/><path fill="#212121" d="M27,30c0,0,0.875-1,6.125-1H34l0,0c0-1.105-0.895-2-2-2l0,0C28,27,27,30,27,30z"/><linearGradient id="ng7f4bIrIQ9rGY8m3b_ejd" x1="26" x2="33" y1="28" y2="28" gradientUnits="userSpaceOnUse"><stop offset="0" stop-color="#f0f0f0"/><stop offset=".534" stop-color="#d3d6d8"/><stop offset=".989" stop-color="#bcc2c5"/><stop offset="1" stop-color="#bbc1c4"/></linearGradient><polygon fill="url(#ng7f4bIrIQ9rGY8m3b_ejd)" points="33,26 27,30 26,30 29,26"/><path fill="#f5e9e8" d="M17,28c3,0,4,2,4,2l-1,1h-2.423C15,31,14,30,14,29C14,29,15,28,17,28z"/><circle cx="17.5" cy="29.5" r="1.5" fill="#212121"/><path fill="#212121" d="M21,30c0,0-0.875-1-6.125-1H14l0,0c0-1.105,0.895-2,2-2l0,0C20,27,21,30,21,30z"/><linearGradient id="ng7f4bIrIQ9rGY8m3b_eje" x1="15" x2="22" y1="28" y2="28" gradientUnits="userSpaceOnUse"><stop offset="0" stop-color="#bbc1c4"/><stop offset=".011" stop-color="#bcc2c5"/><stop offset=".466" stop-color="#d3d6d8"/><stop offset="1" stop-color="#f0f0f0"/></linearGradient><polygon fill="url(#ng7f4bIrIQ9rGY8m3b_eje)" points="15,26 21,30 22,30 19,26"/><linearGradient id="ng7f4bIrIQ9rGY8m3b_ejf" x1="24.002" x2="24.002" y1="48" y2="32" gradientUnits="userSpaceOnUse"><stop offset="0" stop-color="#2a373e"/><stop offset="1" stop-color="#636f75"/></linearGradient><path fill="url(#ng7f4bIrIQ9rGY8m3b_ejf)" d="M34,37c-4,0-7-5-10-5s-6,5-10,5h-1.616c0.262,1.333,0.7,2.667,1.462,4	c0.466,0.815,6.332,7,10.154,7s9.688-6.185,10.154-7c0.762-1.333,1.204-2.667,1.466-4H34z"/><path fill="#3d4144" d="M23,37v-3l-1,3c0,0,1,2,2,2s2-2,2-2H23z"/><linearGradient id="ng7f4bIrIQ9rGY8m3b_ejg" x1="24" x2="24" y1="27" y2="17" gradientUnits="userSpaceOnUse"><stop offset="0" stop-color="#0d265b"/><stop offset="1" stop-color="#0c3194"/></linearGradient><path fill="url(#ng7f4bIrIQ9rGY8m3b_ejg)" d="M11,17c-0.552,0-1,0.448-1,1v8c0,0.55,0.45,1,1,1h26c0.5,0,1-0.542,1-1v-8	c0-0.552-0.448-1-1-1H11z"/><path d="M32,19c0.552,0,1,0.448,1,1v4c0,0.552-0.448,1-1,1H17c-0.552,0-1-0.448-1-1v-4c0-0.552,0.448-1,1-1H32 M32,18H17 c-1.103,0-2,0.897-2,2v4c0,1.103,0.897,2,2,2h15c1.103,0,2-0.897,2-2v-4C34,18.897,33.103,18,32,18L32,18z" opacity=".05"/><path d="M32,19c0.552,0,1,0.448,1,1v4c0,0.552-0.448,1-1,1H17c-0.552,0-1-0.448-1-1v-4c0-0.552,0.448-1,1-1H32 M32,18.5H17 c-0.827,0-1.5,0.673-1.5,1.5v4c0,0.827,0.673,1.5,1.5,1.5h15c0.827,0,1.5-0.673,1.5-1.5v-4C33.5,19.173,32.827,18.5,32,18.5 L32,18.5z" opacity=".07"/><path fill="#97aab1" d="M24,17c0,0,0.5-5.5,6-8.125c0,0-4,3.125-4,8.125"/><linearGradient id="ng7f4bIrIQ9rGY8m3b_ejh" x1="12" x2="12" y1="32" y2="27" gradientUnits="userSpaceOnUse"><stop offset="0" stop-color="#bbc1c4"/><stop offset=".011" stop-color="#bcc2c5"/><stop offset=".466" stop-color="#d3d6d8"/><stop offset="1" stop-color="#f0f0f0"/></linearGradient><polygon fill="url(#ng7f4bIrIQ9rGY8m3b_ejh)" points="11,27 12,32 13,27"/><linearGradient id="ng7f4bIrIQ9rGY8m3b_eji" x1="36" x2="36" y1="32" y2="27" gradientUnits="userSpaceOnUse"><stop offset="0" stop-color="#bbc1c4"/><stop offset=".011" stop-color="#bcc2c5"/><stop offset=".466" stop-color="#d3d6d8"/><stop offset="1" stop-color="#f0f0f0"/></linearGradient><polygon fill="url(#ng7f4bIrIQ9rGY8m3b_eji)" points="37,27 36,32 35,27"/><path fill="#b2b2bc" d="M32,25H17c-0.552,0-1-0.448-1-1v-4c0-0.552,0.448-1,1-1h15c0.552,0,1,0.448,1,1v4	C33,24.552,32.552,25,32,25z"/><path fill="#3d4144" d="M27.621,20.379c-0.195-0.195-0.512-0.195-0.707,0l-0.371,0.371c-0.322-0.297-0.837-0.625-1.543-0.625	c-1.069,0-1.936,0.844-1.99,1.9l-0.908,1.188C21.855,23.535,22.085,24,22.491,24h2.384c0.903,0,1.375-0.566,1.375-1.125	c0-0.637-0.46-0.875-0.75-0.875c-0.276,0-0.5,0.224-0.5,0.5c0,0.079,0.022,0.151,0.055,0.218c0.01,0.021,0.025,0.037,0.038,0.056	c0.029,0.043,0.061,0.08,0.101,0.112c0.01,0.008,0.015,0.021,0.025,0.028C25.17,22.954,25.063,23,24.875,23	C24.327,23,24,22.673,24,22.125c0-0.551,0.449-1,1-1c0.695,0,1.076,0.594,1.089,0.616c0.08,0.132,0.215,0.219,0.368,0.238	c0.156,0.021,0.306-0.034,0.414-0.143l0.75-0.75C27.816,20.891,27.816,20.574,27.621,20.379z"/><linearGradient id="ng7f4bIrIQ9rGY8m3b_ejj" x1="7" x2="47" y1="12" y2="12" gradientUnits="userSpaceOnUse"><stop offset="0" stop-color="#f0f0f0"/><stop offset=".324" stop-color="#ededed"/><stop offset=".568" stop-color="#e3e5e6"/><stop offset=".786" stop-color="#d3d6d8"/><stop offset=".989" stop-color="#bcc2c5"/><stop offset="1" stop-color="#bbc1c4"/></linearGradient><path fill="url(#ng7f4bIrIQ9rGY8m3b_ejj)" d="M11,17H7c0,0,1.125-1,3-1c-1.125-0.625-2.362-1.817-3-4c1.23,1.57,4,2,4,2s-2-2-2-7	c0.5,2,3,4,3,4s0-5.5,5-9c-1,3-1,5-1,5s4-6,12-7c-3.5,2-5,6-5,6s2-3,6-4c-0.625,1-1,2-1,2s4-3,9-4c-2,1.5-3,3-3,3s9-0.18,12-3	c-1,5-3.5,10-6,12c4.719-1.263,7-3,7-3s-2,4.375-7,6.98c1.25,0.77,4.999,1.02,4.999,1.02s-1.97,2-3.999,2h-1	c0.875,1.25,2.999,2,2.999,2s-2.902,0-4.902-2L39,20l1,4c-3.5-4-7-7-7-7s1,1,1,5.125C32,18.5,30,17,30,17s1,1.737,1,3	c-0.5-1-4-3-4-3S19.874,17,11,17z"/><path d="M12.384,36.5H14c1.973,0,3.724-1.354,5.417-2.664C20.97,32.635,22.437,31.5,24,31.5	s3.03,1.135,4.583,2.336C30.276,35.146,32.027,36.5,34,36.5h1.618l0.078,0.008c0.028-0.167,0.057-0.333,0.08-0.5L35.618,36H34	c-1.802,0-3.484-1.301-5.111-2.56C27.266,32.185,25.734,31,24,31s-3.266,1.185-4.889,2.44C17.484,34.699,15.802,36,14,36h-1.616	h-0.157c0.023,0.167,0.036,0.333,0.063,0.5H12.384z" opacity=".05"/><path d="M34,36.5c-1.973,0-3.724-1.354-5.417-2.664C27.03,32.635,25.563,31.5,24,31.5	s-3.03,1.135-4.583,2.336C17.724,35.146,15.973,36.5,14,36.5h-1.616h-0.093c0.028,0.167,0.075,0.333,0.108,0.5H14c4,0,7-5,10-5	s6,5,10,5h1.618c0.032-0.164,0.051-0.328,0.078-0.492L35.618,36.5H34z" opacity=".07"/></svg>